<svg width="104" height="100" viewBox="0 0 104 100" fill="none" xmlns="http://www.w3.org/2000/svg">
<mask id="mask0" mask-type="alpha" maskUnits="userSpaceOnUse" x="0" y="0" width="104" height="100">
<ellipse cx="51.5224" cy="50" rx="51.4925" ry="50" fill="#32E0C4"/>
</mask>
<g mask="url(#mask0)">
<ellipse cx="51.5224" cy="50" rx="51.4925" ry="50" fill="#035A82"/>
<g clip-path="url(#clip0)">
<path d="M84.8417 78.0299C84.8417 67.5933 76.2927 64.6009 67.0446 62.9165L62.1427 62.0623C54.8942 60.8362 54.3349 59.0271 54.3349 56.6055C54.3349 53.4632 57.6261 51.5852 63.1394 51.5852C69.6684 51.5852 71.3413 54.4071 72.0354 56.5268L72.1015 56.7029C72.9227 58.5513 74.8308 59.6538 77.2118 59.6538C77.8283 59.6538 78.3826 59.5729 78.797 59.5007C81.3522 59.0632 83.1319 57.3132 83.1319 55.2405C83.1319 54.7265 83.0238 54.2168 82.8064 53.7213C81.4971 50.0988 77.8182 44.3971 67.6242 43.0955V36.883C67.6242 31.7085 58.2045 31.7085 58.2045 36.883V43.1327C47.2542 44.6071 43.2219 51.0165 43.2219 56.6034C43.2219 66.7687 51.4492 69.6026 59.4859 71.0288L64.7881 71.9979C72.3392 73.3191 73.6702 75.0133 73.6702 78.0824C73.6702 81.8329 69.9849 84.0685 63.8068 84.0685C55.7866 84.0685 54.1518 80.9612 53.0586 77.4732C52.4192 75.5427 50.3916 74.2991 47.8911 74.2991C47.3457 74.2991 46.9084 74.3615 46.3808 74.4391L46.2219 74.4654C43.6363 74.9937 41.9011 76.7459 41.9011 78.8229C41.9011 79.2177 41.9824 79.5535 42.0485 79.8248L42.1299 80.1354C43.2931 83.5184 45.8609 90.9066 58.6685 92.5549V99.0573C58.6685 101.646 61.0355 103.001 63.3771 103.001C65.7187 103.001 68.0882 101.646 68.0882 99.0573V92.6687C78.258 91.529 84.8518 85.9388 84.8518 78.031" fill="white"/>
</g>
</g>
<defs>
<clipPath id="clip0">
<rect width="81.3582" height="70" fill="white" transform="translate(22.6865 33)"/>
</clipPath>
</defs>
</svg>
