<svg width="104" height="100" viewBox="0 0 104 100" fill="none" xmlns="http://www.w3.org/2000/svg">
<mask id="mask0" mask-type="alpha" maskUnits="userSpaceOnUse" x="0" y="0" width="104" height="100">
<ellipse cx="51.5224" cy="50" rx="51.4925" ry="50" fill="#32E0C4"/>
</mask>
<g mask="url(#mask0)">
<ellipse cx="51.5224" cy="50" rx="51.4925" ry="50" fill="#035A82"/>
<g clip-path="url(#clip0)">
<path d="M97.576 85H111.254C111.254 86.875 110.583 88.4635 109.242 89.7656C107.901 91.0677 106.265 91.7188 104.334 91.7188H35.785C33.854 91.7188 32.218 91.0677 30.8771 89.7656C29.5361 88.4635 28.8656 86.875 28.8656 85H42.5434C40.7197 85 39.1373 84.349 37.7964 83.0469C36.4554 81.7448 35.785 80.1562 35.785 78.2812V41.7188C35.785 39.8438 36.4554 38.2552 37.7964 36.9531C39.1373 35.651 40.7197 35 42.5434 35H97.576C99.3997 35 100.982 35.651 102.323 36.9531C103.664 38.2552 104.334 39.8438 104.334 41.7188V78.2812C104.334 80.1562 103.664 81.7448 102.323 83.0469C100.982 84.349 99.3997 85 97.576 85ZM42.5434 41.7188V78.2812H97.576V41.7188H42.5434ZM70.0597 88.2812C71.0252 88.2812 71.8297 87.9688 72.4734 87.3438C73.117 86.7188 73.4389 85.9375 73.4389 85C73.4389 84.0625 73.117 83.2812 72.4734 82.6562C71.8297 82.0312 71.0252 81.7188 70.0597 81.7188C69.0942 81.7188 68.2896 82.0312 67.646 82.6562C67.0023 83.2812 66.6805 84.0625 66.6805 85C66.6805 85.9375 67.0023 86.7188 67.646 87.3438C68.2896 87.9688 69.0942 88.2812 70.0597 88.2812Z" fill="white"/>
</g>
</g>
<defs>
<clipPath id="clip0">
<rect width="82.3881" height="60" fill="white" transform="translate(28.8656 35)"/>
</clipPath>
</defs>
</svg>
