<svg width="252" height="318" viewBox="0 0 252 318" fill="none" xmlns="http://www.w3.org/2000/svg">
<path fill-rule="evenodd" clip-rule="evenodd" d="M219.875 190.671C223.378 180.371 225.16 169.564 225.15 158.685V138.855C225.15 136.225 224.106 133.704 222.246 131.844C220.387 129.985 217.865 128.94 215.235 128.94C212.606 128.94 210.084 129.985 208.224 131.844C206.365 133.704 205.32 136.225 205.32 138.855V158.685C205.32 164.118 204.785 169.393 203.734 174.529L219.875 190.671ZM169.864 224.779C157.913 232.711 144.035 237.254 129.707 237.924C115.379 238.594 101.138 235.367 88.4984 228.586C75.8591 221.804 65.2953 211.722 57.9313 199.413C50.5674 187.104 46.6789 173.029 46.6799 158.685V138.855C46.6799 136.225 45.6353 133.704 43.7758 131.844C41.9164 129.985 39.3945 128.94 36.7649 128.94C34.1352 128.94 31.6133 129.985 29.7539 131.844C27.8945 133.704 26.8499 136.225 26.8499 138.855V158.685C26.8495 183.265 35.9793 206.969 52.4679 225.198C68.9564 243.427 91.6283 254.881 116.085 257.339V297.495H56.5949C53.9653 297.495 51.4434 298.54 49.5839 300.399C47.7245 302.259 46.6799 304.781 46.6799 307.41C46.6799 310.04 47.7245 312.562 49.5839 314.421C51.4434 316.281 53.9653 317.325 56.5949 317.325H195.405C198.035 317.325 200.557 316.281 202.416 314.421C204.276 312.562 205.32 310.04 205.32 307.41C205.32 304.781 204.276 302.259 202.416 300.399C200.557 298.54 198.035 297.495 195.405 297.495H135.915V257.339C153.316 255.618 169.946 249.302 184.102 239.036L169.864 224.779ZM185.49 156.305V59.5349C185.501 45.4268 180.497 31.7741 171.372 21.014C162.248 10.254 149.596 3.08689 135.676 0.792269C121.756 -1.50235 107.473 1.22483 95.3775 8.48698C83.282 15.7491 74.1612 27.0735 69.6431 40.4386L185.49 156.286V156.305ZM66.5099 121.405L155.467 210.362C146.42 215.521 136.176 218.214 125.76 218.173C115.345 218.131 105.123 215.355 96.1174 210.123C87.1114 204.891 79.6367 197.387 74.4409 188.36C69.2451 179.333 66.5103 169.1 66.5099 158.685V121.424V121.405ZM237.96 264.855L0 26.8947L14.0397 12.855L252 250.815L237.96 264.835V264.855Z" fill="white"/>
</svg>
