<svg width="103" height="100" viewBox="0 0 103 100" fill="none" xmlns="http://www.w3.org/2000/svg">
<mask id="mask0" mask-type="alpha" maskUnits="userSpaceOnUse" x="0" y="0" width="103" height="100">
<ellipse cx="51.4925" cy="50" rx="51.4925" ry="50" fill="#32E0C4"/>
</mask>
<g mask="url(#mask0)">
<ellipse cx="51.4925" cy="50" rx="51.4925" ry="50" fill="#035A82"/>
<path fill-rule="evenodd" clip-rule="evenodd" d="M85.1176 75.6904C89.9969 79.1392 93.416 83.8117 93.416 90.0417V101.167H104.101C106.06 101.167 107.662 99.4979 107.662 97.4583V90.0417C107.662 81.9575 94.9475 77.1738 85.1176 75.6904V75.6904Z" fill="white"/>
<path d="M57.8004 71.5C65.6684 71.5 72.0466 64.8589 72.0466 56.6667C72.0466 48.4744 65.6684 41.8333 57.8004 41.8333C49.9324 41.8333 43.5541 48.4744 43.5541 56.6667C43.5541 64.8589 49.9324 71.5 57.8004 71.5Z" fill="white"/>
<path fill-rule="evenodd" clip-rule="evenodd" d="M79.1698 71.5C87.0408 71.5 93.416 64.8621 93.416 56.6667C93.416 48.4712 87.0408 41.8333 79.1698 41.8333C77.4958 41.8333 75.9287 42.2042 74.4329 42.7233C77.4977 46.6698 79.1697 51.5914 79.1697 56.6667C79.1697 61.7419 77.4977 66.6635 74.4329 70.61C75.9287 71.1292 77.4958 71.5 79.1698 71.5ZM57.8004 75.2083C48.291 75.2083 29.3078 80.1775 29.3078 90.0417V97.4583C29.3078 99.4979 30.9105 101.167 32.8694 101.167H82.7313C84.6902 101.167 86.2929 99.4979 86.2929 97.4583V90.0417C86.2929 80.1775 67.3098 75.2083 57.8004 75.2083Z" fill="white"/>
</g>
</svg>
