<svg width="104" height="100" viewBox="0 0 104 100" fill="none" xmlns="http://www.w3.org/2000/svg">
<mask id="mask0" mask-type="alpha" maskUnits="userSpaceOnUse" x="0" y="0" width="104" height="100">
<ellipse cx="51.5224" cy="50" rx="51.4925" ry="50" fill="#32E0C4"/>
</mask>
<g mask="url(#mask0)">
<ellipse cx="51.5224" cy="50" rx="51.4925" ry="50" fill="#035A82"/>
<path d="M90.6567 51.5H77.2686V45C77.2686 41.3925 74.2898 38.5 70.5746 38.5H57.1865C53.4714 38.5 50.4925 41.3925 50.4925 45V51.5H37.1045C33.3893 51.5 30.4439 54.3925 30.4439 58L30.4104 93.75C30.4104 97.3575 33.3893 100.25 37.1045 100.25H90.6567C94.3719 100.25 97.3507 97.3575 97.3507 93.75V58C97.3507 54.3925 94.3719 51.5 90.6567 51.5ZM70.5746 51.5H57.1865V45H70.5746V51.5Z" fill="white"/>
</g>
</svg>
