<svg width="200" height="318" viewBox="0 0 200 318" fill="none" xmlns="http://www.w3.org/2000/svg">
<path fill-rule="evenodd" clip-rule="evenodd" d="M193.875 190.671C197.378 180.371 199.16 169.564 199.15 158.685V138.855C199.15 136.225 198.106 133.703 196.246 131.844C194.387 129.985 191.865 128.94 189.235 128.94C186.606 128.94 184.084 129.985 182.224 131.844C180.365 133.703 179.32 136.225 179.32 138.855V158.685C179.32 164.119 178.785 169.393 177.734 174.529L193.875 190.671ZM143.864 224.779C131.913 232.711 118.035 237.254 103.707 237.924C89.3793 238.594 75.1377 235.367 62.4984 228.586C49.8592 221.804 39.2953 211.722 31.9314 199.413C24.5674 187.104 20.6789 173.029 20.6799 158.685V138.855C20.6799 136.225 19.6353 133.703 17.7759 131.844C15.9165 129.985 13.3945 128.94 10.7649 128.94C8.13529 128.94 5.61337 129.985 3.75394 131.844C1.89451 133.703 0.849898 136.225 0.849898 138.855V158.685C0.849589 183.265 9.97934 206.969 26.4679 225.198C42.9565 243.427 65.6284 254.881 90.085 257.339V297.495H30.5949C27.9653 297.495 25.4434 298.54 23.584 300.399C21.7245 302.259 20.6799 304.781 20.6799 307.41C20.6799 310.04 21.7245 312.562 23.584 314.421C25.4434 316.281 27.9653 317.325 30.5949 317.325H169.405C172.035 317.325 174.557 316.281 176.416 314.421C178.276 312.562 179.32 310.04 179.32 307.41C179.32 304.781 178.276 302.259 176.416 300.399C174.557 298.54 172.035 297.495 169.405 297.495H109.915V257.339C127.316 255.618 143.946 249.302 158.102 239.036L143.864 224.779ZM159.49 156.305V59.5349C159.501 45.4268 154.497 31.7741 145.372 21.014C136.248 10.254 123.596 3.08689 109.676 0.792269C95.7556 -1.50235 81.473 1.22483 69.3775 8.48698C57.2821 15.7491 48.1612 27.0735 43.6431 40.4386L100 96.7956L142.05 138.845L159.49 156.286V156.305ZM40.51 121.405L57.9505 138.845L100 180.895L129.467 210.362C120.42 215.521 110.176 218.214 99.7605 218.173C89.3452 218.131 79.1235 215.355 70.1175 210.123C61.1114 204.891 53.6368 197.387 48.441 188.36C43.2452 179.333 40.5103 169.1 40.51 158.685V121.405Z" fill="white"/>
<path fill-rule="evenodd" clip-rule="evenodd" d="M6.12472 190.671C2.62181 180.371 0.839645 169.564 0.849898 158.685V138.855C0.849898 136.225 1.89451 133.703 3.75394 131.844C5.61337 129.985 8.13529 128.94 10.7649 128.94C13.3945 128.94 15.9165 129.985 17.7759 131.844C19.6353 133.703 20.6799 136.225 20.6799 138.855V158.685C20.6799 164.119 21.2154 169.393 22.2664 174.529L6.12472 190.671ZM56.1361 224.779C68.0869 232.711 81.9649 237.254 96.2929 237.924C110.621 238.594 124.862 235.367 137.502 228.586C150.141 221.804 160.705 211.722 168.069 199.413C175.433 187.104 179.321 173.029 179.32 158.685V138.855C179.32 136.225 180.365 133.703 182.224 131.844C184.084 129.985 186.606 128.94 189.235 128.94C191.865 128.94 194.387 129.985 196.246 131.844C198.106 133.703 199.15 136.225 199.15 138.855V158.685C199.151 183.265 190.021 206.969 173.532 225.198C157.044 243.427 134.372 254.881 109.915 257.339V297.495H169.405C172.035 297.495 174.557 298.54 176.416 300.399C178.276 302.259 179.32 304.781 179.32 307.41C179.32 310.04 178.276 312.562 176.416 314.421C174.557 316.281 172.035 317.325 169.405 317.325H30.5949C27.9653 317.325 25.4434 316.281 23.584 314.421C21.7245 312.562 20.6799 310.04 20.6799 307.41C20.6799 304.781 21.7245 302.259 23.584 300.399C25.4434 298.54 27.9653 297.495 30.5949 297.495H90.085V257.339C72.6841 255.618 56.0536 249.302 41.8981 239.036L56.1361 224.779ZM40.51 156.305V59.5349C40.4994 45.4268 45.503 31.7741 54.6277 21.014C63.7523 10.254 76.404 3.08689 90.3242 0.792269C104.244 -1.50235 118.527 1.22483 130.623 8.48698C142.718 15.7491 151.839 27.0735 156.357 40.4386L100 96.7956L57.9505 138.845L40.51 156.286V156.305ZM159.49 121.405L142.05 138.845L100 180.895L70.5327 210.362C79.5805 215.521 89.8243 218.214 100.24 218.173C110.655 218.131 120.877 215.355 129.883 210.123C138.889 204.891 146.363 197.387 151.559 188.36C156.755 179.333 159.49 169.1 159.49 158.685V121.405Z" fill="white"/>
<path d="M53 92H146V185H53V92Z" fill="white"/>
</svg>
