<svg width="404" height="288" viewBox="0 0 404 288" fill="none" xmlns="http://www.w3.org/2000/svg">
<path d="M48.6763 0.25H240.324C266.774 0.25 288.25 21.6975 288.25 48.1762V239.824C288.25 266.274 266.803 287.75 240.324 287.75H48.6763C22.2263 287.75 0.75 266.303 0.75 239.824V48.1762C0.75 21.7262 22.1975 0.25 48.6763 0.25Z" fill="#B5B5B5"/>
<path d="M184.863 164.039L367.799 270.184C383.324 279.182 403.248 268.286 403.248 250.145V37.8549C403.248 19.7424 383.324 8.81742 367.799 17.8449L184.863 123.99C181.331 126.006 178.395 128.92 176.354 132.437C174.312 135.954 173.236 139.948 173.236 144.014C173.236 148.081 174.312 152.075 176.354 155.592C178.395 159.108 181.331 162.023 184.863 164.039V164.039Z" fill="#B5B5B5"/>
</svg>
