<svg width="496" height="498" viewBox="0 0 496 498" fill="none" xmlns="http://www.w3.org/2000/svg">
<path d="M88 169.072H72V193.072H48V209.072H72V233.072H88V209.072H112V193.072H88V169.072Z" fill="#2B3236"/>
<path d="M128 105.072H32V153.072H128V105.072ZM112 137.072H48V121.072H112V137.072Z" fill="#2B3236"/>
<path d="M444.44 362.416C427.608 351.2 411.464 344.592 398.496 339.28C375.48 329.872 362.8 324.616 360.44 304.496C369.976 299.96 378.48 293.72 385.76 285.576C393.352 277.096 399.096 267.248 403.496 256.888C417.608 255.608 439.32 246.44 439.944 218.256L464.392 112.312L463.36 109.912C413.696 -5.95199 288.728 1.00801 288 1.07201C242.928 1.07201 216 29.544 216 57.072C216 57.952 216.2 58.672 216.256 59.512C178.024 75.248 173.088 112.256 176.112 130.384L200.072 218.4C200.76 246.488 222.44 255.624 236.528 256.896C240.928 267.248 246.656 277.104 254.24 285.576C261.384 293.56 269.704 299.712 279.016 304.232C277.088 312.352 271.336 324.992 254.056 329.312C231.784 334.88 207.784 348.312 194.448 363.176C189.76 357.664 181.648 353.072 167.992 353.072C142.68 353.072 135.992 368.768 135.992 377.072V457.072C135.992 458.048 135.624 481.072 103.992 481.072C73.32 481.072 72.04 459.464 71.992 457.072V377.072H87.992V329.072H95.992V297.072H127.992C142.944 297.072 159.992 280.024 159.992 265.072V73.072H0V265.072C0 280.024 17.048 297.072 32 297.072V329.072H40V377.072H56V457.072C56 470.904 66.032 497.072 104 497.072C141.968 497.072 152 470.904 152 457.072L151.992 377.296C152.088 375.928 153.272 369.072 168 369.072C182.728 369.072 183.912 375.928 184 377.072V425.072H168V497.072H208H216H496V489.072C496 485.304 495.416 396.4 444.44 362.416V362.416ZM144 89.072V249.072H16V89.072H144ZM16 265.072H144C144 271.208 134.136 281.072 128 281.072H96H32C25.864 281.072 16 271.2 16 265.072ZM80 297.072V313.072H48V297.072H80ZM72 329.072V361.072H56V329.072H72ZM409.616 239.304C413.8 224.336 415.712 209.312 416.464 196.376C420.304 199.456 424 205.44 424 217.072C424 231 416.384 236.848 409.616 239.304ZM216 217.072C216 205.384 219.664 199.408 223.536 196.328C224.288 209.272 226.152 224.296 230.336 239.28C223.576 236.816 216 230.96 216 217.072ZM266.192 274.936C232.144 236.944 239.864 162.696 240 161.184C240.056 159.344 241.216 143.016 265.936 136.84L262.064 121.32C226.848 130.128 224.216 156.2 224.016 160.512C223.84 162.208 223.224 168.968 223.112 178.632C218.144 180.288 212.856 183.464 208.576 188.776L191.832 127.4C191.24 123.288 187.536 89.496 221.024 74.84C227.552 84.912 239.184 89.072 248 89.072V73.072C245.328 73.072 232 72.304 232 57.072C232 37.408 252.944 17.072 288.52 17.056C293.184 16.752 401.872 11.04 447.608 113.848L430.568 187.672C426.448 182.984 421.52 180.168 416.888 178.624C416.76 168.184 416.056 161.128 415.952 160.184L415.52 156.336L412.24 154.28C409.544 152.6 345.808 113.064 304 113.064C288.072 113.064 282.656 109.016 280.84 106.6C278.496 103.472 279.584 99.624 279.632 99.464L272 97.072L264.416 94.544C264.024 95.712 260.824 106.2 267.784 115.848C274.104 124.624 286.288 129.072 304 129.072C336.2 129.072 386.872 157.8 400.368 165.808C401.456 181.576 403.44 241.824 373.84 274.904C360.672 289.608 342.568 297.072 320.008 297.072C297.456 297.072 279.352 289.624 266.192 274.936V274.936ZM320 313.072C328.936 313.072 337.264 311.976 345.072 310.008C347.968 326.296 356.576 335.664 368 342.616V369.048C367.992 370.024 367.672 393.072 352 393.072H328V369.072H312V393.072H288C272.328 393.072 272.008 370.024 272 369.072V339.104C284.64 331.616 291.168 319.936 294.064 309.8C302.112 311.92 310.728 313.072 320 313.072ZM200 481.072H184V441.072H200V481.072ZM216 481.072V425.072H200V385.072C200 375.344 225.44 353.656 256 345.376V369.072C256 382.904 262.688 409.072 288 409.072H320H328H352C377.312 409.072 384 382.904 384 369.072V350.592C386.752 351.768 389.568 352.928 392.432 354.096C405.384 359.392 420.072 365.4 435.568 375.728C471.328 399.568 478.32 459.384 479.68 481.072H216Z" fill="#2B3236"/>
<path d="M356.8 255.48L347.208 242.68C320.544 262.672 293.912 243.488 292.776 242.664L283.2 255.48C290.696 261.096 304.776 267.664 321.032 267.664C332.4 267.664 344.832 264.456 356.8 255.48V255.48Z" fill="#2B3236"/>
<path d="M299.56 178.416C281.896 190.192 270.776 180.488 269.584 179.344L258.344 190.728C262.64 195.032 271.48 200.144 282.912 200.144C290.464 200.144 299.168 197.912 308.432 191.728L299.56 178.416Z" fill="#2B3236"/>
<path d="M380.44 191.728L371.568 178.416C353.904 190.192 342.784 180.488 341.592 179.344L330.352 190.728C334.648 195.032 343.488 200.144 354.92 200.144C362.472 200.144 371.168 197.912 380.44 191.728V191.728Z" fill="#2B3236"/>
<path d="M417.504 133.736L430.512 124.424C428.784 122 387.344 65.072 320 65.072V81.072C378.976 81.072 417.12 133.208 417.504 133.736Z" fill="#2B3236"/>
<path d="M228.424 97.92C227.648 98.304 209.36 107.712 200.416 134.544L215.584 139.608C222.328 119.384 235.104 112.48 235.648 112.2L232 105.072L228.424 97.92Z" fill="#2B3236"/>
</svg>
