<svg width="512" height="512" viewBox="0 0 512 512" fill="none" xmlns="http://www.w3.org/2000/svg">
<path d="M152 240H136C133.878 240 131.843 240.843 130.343 242.343C128.843 243.843 128 245.878 128 248C128 250.122 128.843 252.157 130.343 253.657C131.843 255.157 133.878 256 136 256H152C154.122 256 156.157 255.157 157.657 253.657C159.157 252.157 160 250.122 160 248C160 245.878 159.157 243.843 157.657 242.343C156.157 240.843 154.122 240 152 240Z" fill="#2B3236"/>
<path d="M216 256H232C234.122 256 236.157 255.157 237.657 253.657C239.157 252.157 240 250.122 240 248C240 245.878 239.157 243.843 237.657 242.343C236.157 240.843 234.122 240 232 240H216C213.878 240 211.843 240.843 210.343 242.343C208.843 243.843 208 245.878 208 248C208 250.122 208.843 252.157 210.343 253.657C211.843 255.157 213.878 256 216 256Z" fill="#2B3236"/>
<path d="M184.411 282.53C185.082 284.543 186.525 286.207 188.423 287.156C190.32 288.104 192.517 288.26 194.53 287.589C196.543 286.918 198.207 285.475 199.156 283.577C200.104 281.68 200.26 279.483 199.589 277.47L191.589 253.47C191.257 252.473 190.732 251.552 190.043 250.758C189.355 249.964 188.517 249.314 187.577 248.844C186.638 248.375 185.615 248.094 184.567 248.02C183.519 247.946 182.466 248.078 181.47 248.411C180.473 248.743 179.552 249.268 178.758 249.957C177.964 250.645 177.314 251.483 176.844 252.423C176.375 253.362 176.094 254.385 176.02 255.433C175.946 256.481 176.078 257.534 176.411 258.53L184.411 282.53Z" fill="#2B3236"/>
<path d="M144 272C148.418 272 152 268.418 152 264C152 259.582 148.418 256 144 256C139.582 256 136 259.582 136 264C136 268.418 139.582 272 144 272Z" fill="#2B3236"/>
<path d="M224 272C228.418 272 232 268.418 232 264C232 259.582 228.418 256 224 256C219.582 256 216 259.582 216 264C216 268.418 219.582 272 224 272Z" fill="#2B3236"/>
<path d="M176 320H192C194.122 320 196.157 319.157 197.657 317.657C199.157 316.157 200 314.122 200 312C200 309.878 199.157 307.843 197.657 306.343C196.157 304.843 194.122 304 192 304H176C173.878 304 171.843 304.843 170.343 306.343C168.843 307.843 168 309.878 168 312C168 314.122 168.843 316.157 170.343 317.657C171.843 319.157 173.878 320 176 320Z" fill="#2B3236"/>
<path d="M294.826 377.832C278.216 367.455 259.271 361.404 239.721 360.23C238.24 357.106 236.098 354.339 233.444 352.123L221.873 342.481C232.195 336.911 241.171 329.147 248.168 319.734C255.165 310.321 260.014 299.489 262.374 288H264C271.043 288.003 277.891 285.68 283.479 281.394C289.068 277.107 293.086 271.096 294.909 264.293C296.733 257.49 296.26 250.275 293.564 243.768C290.868 237.261 286.1 231.826 280 228.305V203.313C280 198.676 279.087 194.084 277.312 189.8C275.537 185.515 272.936 181.622 269.657 178.343C266.378 175.064 262.485 172.463 258.2 170.688C253.916 168.913 249.324 168 244.687 168H243.849C243.853 165.636 243.39 163.295 242.487 161.111C241.584 158.926 240.258 156.942 238.585 155.271L233.456 150.142C219.278 135.965 200.05 128 180 128C159.95 128 140.722 135.965 126.544 150.142L105.373 171.313C105.009 171.677 104.515 171.882 104 171.882C103.485 171.882 102.992 171.677 102.627 171.313C100.118 168.804 96.9215 167.096 93.4412 166.404C89.961 165.711 86.3537 166.067 83.0754 167.425C79.7971 168.783 76.9951 171.082 75.0237 174.033C73.0523 176.983 72.0001 180.452 72 184V191.029C71.9824 197.463 73.2411 203.836 75.7031 209.78C78.1651 215.724 81.7816 221.12 86.3433 225.657C87.1177 226.432 87.9208 227.166 88.7366 227.881C82.4817 231.275 77.5368 236.657 74.6838 243.176C71.8308 249.696 71.2326 256.98 72.9838 263.878C74.7349 270.775 78.7356 276.892 84.3529 281.261C89.9703 285.629 96.8837 288.001 104 288H105.626C107.94 299.257 112.643 309.886 119.42 319.167C126.196 328.449 134.887 336.167 144.904 341.799C142.34 344.048 140.315 346.846 138.982 349.985C137.648 353.125 137.04 356.525 137.202 359.932C136.802 359.961 136.404 360 135.998 360H135.352C109.188 360 83.7759 368.746 63.1539 384.847C42.5318 400.948 27.8837 423.48 21.5381 448.862C17.8616 463.576 16.0017 478.684 16 493.85V496H32V493.85C32.0016 479.992 33.7011 466.187 37.0606 452.743C43.2176 427.941 58.5659 406.404 80 392.49V432C80 433.307 80.3204 434.595 80.9331 435.75C81.5459 436.905 82.4324 437.892 83.515 438.625C84.5976 439.358 85.8433 439.814 87.1431 439.954C88.443 440.094 89.7573 439.913 90.9712 439.428L101.616 435.17L73.4463 475.412L86.5537 484.588L138.368 410.567L187.864 438.852C188.833 439.405 189.675 440.154 190.337 441.052C190.998 441.95 191.465 442.977 191.706 444.066C191.948 445.155 191.959 446.282 191.738 447.376C191.518 448.469 191.072 449.504 190.428 450.415L167.123 483.382L180.188 492.618L203.493 459.651C206.48 455.433 208.022 450.363 207.891 445.196C207.759 440.029 205.96 435.044 202.762 430.983L237.28 384.96C239.199 382.402 240.585 379.486 241.358 376.383C242.825 376.51 244.287 376.674 245.744 376.864L229.602 446.815C225.882 462.946 224.003 479.446 224 496H240C240.003 480.657 241.744 465.364 245.191 450.413L250.203 428.697L277.029 439.428C278.243 439.913 279.557 440.094 280.857 439.954C282.157 439.814 283.403 439.358 284.485 438.625C285.568 437.892 286.454 436.905 287.067 435.75C287.68 434.595 288 433.307 288 432V392.49C309.434 406.404 324.782 427.941 330.939 452.743C334.299 466.187 335.998 479.992 336 493.85V496H352V493.85C351.998 478.684 350.138 463.576 346.462 448.862C339.149 419.368 320.626 393.887 294.826 377.832V377.832ZM264 272V240C268.243 240 272.313 241.686 275.314 244.686C278.314 247.687 280 251.757 280 256C280 260.243 278.314 264.313 275.314 267.314C272.313 270.314 268.243 272 264 272ZM88 184C88.0001 183.616 88.1141 183.241 88.3275 182.922C88.5409 182.602 88.8441 182.354 89.1989 182.207C89.5536 182.06 89.944 182.022 90.3205 182.096C90.6971 182.171 91.043 182.356 91.3145 182.628C94.6818 185.987 99.2439 187.874 104 187.874C108.757 187.874 113.319 185.987 116.686 182.628L137.858 161.456C143.392 155.922 149.962 151.532 157.193 148.537C164.424 145.542 172.173 144 180 144C187.827 144 195.576 145.542 202.807 148.537C210.038 151.532 216.608 155.922 222.142 161.456L227.272 166.586C227.646 166.961 227.857 167.47 227.857 168C227.857 168.53 227.646 169.039 227.272 169.414L218.343 178.343C216.843 179.843 216 181.878 216 184C216 186.121 216.843 188.156 218.343 189.657C219.843 191.157 221.878 192 224 192C226.121 192 228.156 191.157 229.657 189.657L235.314 184H244.687C249.809 184 254.721 186.035 258.343 189.657C261.965 193.279 264 198.191 264 203.313V224H253.255C250.102 224.009 246.978 223.392 244.065 222.185C241.152 220.978 238.507 219.206 236.284 216.97L213.657 194.343C212.156 192.843 210.122 192 208 192C205.878 192 203.844 192.843 202.343 194.343C192.963 203.775 181.805 211.253 169.515 216.343C157.225 221.434 144.048 224.036 130.745 224H120.971C112.226 224 103.84 220.526 97.657 214.343C91.4738 208.16 88.0001 199.774 88 191.029V184ZM88 256C88.0049 251.758 89.6921 247.691 92.6917 244.692C95.6912 241.692 99.758 240.005 104 240V272C99.758 271.995 95.6912 270.308 92.6917 267.308C89.6921 264.309 88.0049 260.242 88 256ZM120 272V239.976C120.324 239.983 120.646 240 120.971 240H130.745C159.093 240.081 186.496 229.814 207.812 211.125L224.97 228.283C231.175 234.52 239.276 238.518 248 239.649V272C247.987 284.731 244.184 297.17 237.076 307.732C229.968 318.294 219.877 326.501 208.088 331.307C202.797 328.018 196.434 326.917 190.346 328.236C184.257 329.556 178.921 333.193 175.467 338.378L173.781 340.906L172.428 340.004C170.934 339.007 169.327 338.19 167.642 337.568C167.278 336.371 166.637 335.276 165.773 334.371C164.908 333.467 163.844 332.777 162.664 332.359C150.193 327.932 139.397 319.754 131.758 308.947C124.119 298.14 120.012 285.234 120 272V272ZM135.998 376C138.251 375.999 140.497 375.76 142.7 375.288L142.769 375.425L129.398 395.48L127.257 398.539L122.255 376.861C126.597 376.292 130.972 376.004 135.352 376H135.998ZM96 383.968C99.4598 382.507 102.998 381.24 106.599 380.173L114.156 412.922L96 420.184V383.968ZM224.48 375.36L189.838 421.55L147.411 397.306L158.656 380.438C159.439 379.264 159.897 377.905 159.985 376.497C160.072 375.089 159.786 373.683 159.155 372.422L153.875 361.86C153.216 360.543 153.011 359.045 153.292 357.599C153.573 356.154 154.324 354.842 155.428 353.867C156.532 352.892 157.928 352.31 159.397 352.21C160.866 352.111 162.327 352.5 163.553 353.316L171.562 358.656C173.328 359.833 175.488 360.261 177.569 359.844C179.649 359.428 181.479 358.203 182.656 356.438L188.779 347.253C189.402 346.319 190.214 345.526 191.163 344.927C192.112 344.328 193.177 343.934 194.288 343.773C195.399 343.612 196.531 343.687 197.611 343.992C198.691 344.297 199.695 344.826 200.558 345.545L223.201 364.414C224.777 365.727 225.789 367.594 226.027 369.632C226.265 371.669 225.711 373.72 224.48 375.36ZM253.844 412.921L261.402 380.169C265.002 381.238 268.54 382.506 272 383.968V420.184L253.844 412.921Z" fill="#2B3236"/>
<path d="M404 16H380C363.86 16.0041 348.005 20.2531 334.026 28.3207C320.047 36.3882 308.435 47.9905 300.357 61.9633C292.278 75.9361 288.017 91.7878 288 107.928C287.983 124.068 292.212 139.928 300.261 153.918L288.411 189.471C288.01 190.673 287.9 191.954 288.092 193.207C288.283 194.46 288.769 195.65 289.51 196.678C290.251 197.706 291.226 198.544 292.354 199.121C293.483 199.699 294.732 200 296 200C296.44 200 296.88 199.963 297.315 199.892L343.036 192.273C354.684 197.397 367.275 200.029 380 200H404C428.4 200 451.801 190.307 469.054 173.054C486.307 155.8 496 132.4 496 108C496 83.6001 486.307 60.1995 469.054 42.9462C451.801 25.6928 428.4 16 404 16V16ZM457.743 161.743C450.702 168.822 442.326 174.434 433.101 178.255C423.876 182.075 413.985 184.028 404 184H380C368.777 184.028 357.69 181.55 347.547 176.747C346.073 176.051 344.423 175.822 342.815 176.089L307.791 181.925L316.609 155.469C316.985 154.341 317.105 153.145 316.961 151.965C316.816 150.786 316.41 149.653 315.773 148.65C308.498 137.155 304.441 123.918 304.027 110.32C303.612 96.7227 306.855 83.2631 313.416 71.346C319.978 59.429 329.617 49.4915 341.329 42.5706C353.041 35.6498 366.396 31.9992 380 32H404C419.031 32.0009 433.725 36.4587 446.223 44.81C458.721 53.1612 468.462 65.0308 474.214 78.9179C479.967 92.805 481.472 108.086 478.54 122.829C475.609 137.571 468.371 151.114 457.743 161.743Z" fill="#2B3236"/>
<path d="M392 43.7158C387.233 43.7029 382.511 44.6354 378.107 46.4595C373.703 48.2837 369.705 50.9631 366.343 54.3428C366.295 54.3907 366.248 54.4395 366.201 54.4883L362.462 58.4229C358.339 62.5897 356.036 68.2216 356.059 74.0836C356.082 79.9456 358.428 85.5593 362.584 89.6939C366.739 93.8285 372.365 96.1465 378.227 96.1396C384.089 96.1327 389.709 93.8015 393.855 89.6572L397.657 85.8555C398.4 85.1126 398.989 84.2307 399.391 83.2601C399.793 82.2895 400 81.2492 400 80.1986C400 79.148 399.793 78.1077 399.391 77.137C398.989 76.1664 398.4 75.2844 397.657 74.5415C396.914 73.7986 396.032 73.2092 395.062 72.8071C394.091 72.4051 393.051 72.1981 392 72.198C390.95 72.198 389.909 72.4049 388.939 72.8069C387.968 73.2089 387.086 73.7981 386.343 74.541L382.542 78.3427C381.899 78.9854 381.122 79.4775 380.266 79.7835C379.411 80.0895 378.498 80.2018 377.593 80.1123C376.689 80.0228 375.816 79.7338 375.037 79.266C374.258 78.7982 373.592 78.1633 373.088 77.4072C372.303 76.2248 371.951 74.8077 372.091 73.3955C372.231 71.9834 372.854 70.6628 373.855 69.6572C373.903 69.6094 373.95 69.5605 373.997 69.5117L377.723 65.5908C381.538 61.8078 386.699 59.6931 392.072 59.7107C397.444 59.7283 402.591 61.8768 406.381 65.6847C410.172 69.4926 412.296 74.6488 412.289 80.0216C412.282 85.3944 410.144 90.5449 406.343 94.3428L397.656 103.03C393.313 107.35 389.87 112.488 387.526 118.147C385.182 123.807 383.983 129.875 384 136C384 138.122 384.843 140.157 386.343 141.657C387.843 143.157 389.878 144 392 144C394.122 144 396.157 143.157 397.657 141.657C399.157 140.157 400 138.122 400 136C399.989 131.976 400.776 127.991 402.316 124.273C403.856 120.556 406.117 117.181 408.97 114.344L417.657 105.657C422.731 100.583 426.187 94.1176 427.587 87.0791C428.987 80.0405 428.269 72.7449 425.523 66.1147C422.776 59.4846 418.126 53.8177 412.159 49.8307C406.192 45.8437 399.176 43.7157 392 43.7158V43.7158Z" fill="#2B3236"/>
<path d="M392 168C396.418 168 400 164.418 400 160C400 155.582 396.418 152 392 152C387.582 152 384 155.582 384 160C384 164.418 387.582 168 392 168Z" fill="#2B3236"/>
</svg>
