<svg width="481" height="458" viewBox="0 0 481 458" fill="none" xmlns="http://www.w3.org/2000/svg">
<path d="M479.426 256.581C475.879 232.007 456.574 212.702 432 209.155V194.611C432 154.483 401.496 121.811 364 121.811C327.584 121.811 297.096 153.491 296 192.435H296.464L296 192.515V350.171C296 400.571 258.32 441.499 212 441.499C165.68 441.499 128 400.515 128 350.171V336.515C139.6 336.515 152 328.107 152 304.515V284.395C203.344 271.267 240 227.179 240 177.195V160.515H224L223.664 56.395C223.548 37.122 209.718 20.666 190.752 17.235C186.661 4.70201 173.184 -2.14199 160.65 1.95001C148.117 6.04101 141.273 19.518 145.365 32.052C149.456 44.585 162.933 51.429 175.467 47.337C182.178 45.146 187.575 40.097 190.208 33.547C200.457 36.463 207.557 45.787 207.64 56.443L208 160.515H192V177.427C191.362 205.254 172.706 229.436 145.952 237.115C131.637 241.657 116.267 241.657 101.952 237.115C75.229 229.41 56.615 205.232 56 177.427V160.515H32V56.515C32.046 45.702 39.318 36.254 49.76 33.443C54.629 45.838 68.624 51.938 81.019 47.069C93.414 42.2 99.514 28.204 94.645 15.81C89.776 3.41601 75.78 -2.68499 63.386 2.18401C56.67 4.82301 51.488 10.33 49.264 17.195C30.091 20.471 16.053 37.064 16 56.515V160.515H0V177.155C0 227.195 36.68 271.299 88 284.395V304.515C88 328.107 100.4 336.515 112 336.515V350.171C112 409.371 156.856 457.499 212 457.499C267.144 457.499 312 409.315 312 350.171V192.899C312.8 162.539 336.144 137.835 364 137.835C392.672 137.835 416 163.307 416 194.635V209.155C385.389 213.573 364.156 241.97 368.574 272.581C372.992 303.192 401.389 324.425 432 320.007C462.611 315.589 483.844 287.191 479.426 256.581ZM168 32.515C163.582 32.515 160 28.933 160 24.515C160 20.097 163.582 16.515 168 16.515C172.418 16.515 176 20.097 176 24.515C176 28.933 172.418 32.515 168 32.515ZM72 16.515C76.418 16.515 80 20.097 80 24.515C80 28.933 76.418 32.515 72 32.515C67.582 32.515 64 28.933 64 24.515C64 20.097 67.582 16.515 72 16.515ZM16 177.155V176.515H40V177.427C40.6 212.198 63.733 242.543 97.104 252.331C114.591 257.868 133.361 257.868 150.848 252.331C184.235 242.556 207.389 212.21 208 177.427V176.515H224V177.155C224 221.659 189.696 260.819 142.4 270.291C131.294 272.515 119.918 273.073 108.648 271.947C104.938 271.587 101.25 271.029 97.6 270.275C50.304 260.819 16 221.659 16 177.155ZM112 320.515C104.8 320.515 104 309.315 104 304.515V287.539C104.64 287.619 105.296 287.651 105.944 287.715C106.744 287.803 107.544 287.867 108.344 287.939C112.128 288.275 115.944 288.499 119.792 288.507H120.192C124.032 288.507 127.84 288.275 131.6 287.939C132.4 287.867 133.248 287.803 134.072 287.715C134.704 287.643 135.36 287.619 135.992 287.539V304.515C135.992 309.315 135.192 320.515 127.992 320.515H112ZM424 304.515C401.909 304.515 384 286.606 384 264.515C384 242.424 401.909 224.515 424 224.515C446.091 224.515 464 242.424 464 264.515C463.974 286.596 446.08 304.489 424 304.515Z" fill="#2B3236"/>
</svg>
